<svg xmlns="http://www.w3.org/2000/svg" width="24" height="24" viewBox="0 0 24 24"><path fill="#212B36" d="M21 16.5C21 16.88 20.79 17.21 20.47 17.38L12.57 21.82C12.41 21.94 12.21 22 12 22C11.79 22 11.59 21.94 11.43 21.82L3.53 17.38C3.21 17.21 3 16.88 3 16.5V7.5C3 7.12 3.21 6.79 3.53 6.62L11.43 2.18C11.59 2.06 11.79 2 12 2C12.21 2 12.41 2.06 12.57 2.18L20.47 6.62C20.79 6.79 21 7.12 21 7.5V16.5Z" opacity=".24"/><path fill="#212B36" d="M12 22a.96.96 0 0 1-.57-.18l-7.9-4.44A1 1 0 0 1 3 16.5v-9a1 1 0 0 1 .53-.88l7.9-4.44a1 1 0 0 1 1.14 0l7.9 4.44A1 1 0 0 1 21 7.5v9a1 1 0 0 1-.53.88l-7.9 4.44A.96.96 0 0 1 12 22ZM5 16.5l7 3.94l7-3.94v-8.06L12 4.5L5 8.44v8.06Z"/></svg>
